# xmcd CD database file
#
# Track frame offsets:
#	150
#	54300
#	82062
#	122400
#	161400
#	177000
#	200350
#	257025
#	293700
#
# Disc length: 4047 seconds
#
# Revision: 3
# Processed by: cddbd v1.5.2PL0 Copyright (c) Steve Scherf et al.
# Submitted via: CDex 1.51
#
DISCID=710fcd09
DTITLE=Marcus Becker Quartett - Lacuna
DYEAR=1991
DGENRE=Jazz
TTITLE0=Open Fast Now
TTITLE1=Lacuna, Part I
TTITLE2=Lacuna, Part II and Epilog
TTITLE3=Tat-O-Manie
TTITLE4=Luna
TTITLE5=Brothers Of Redemtion
TTITLE6=2nd Friday In June
TTITLE7=Light's
TTITLE8=Serenata
EXTD=YEAR: 1991
EXTT0=
EXTT1=
EXTT2=
EXTT3=
EXTT4=
EXTT5=
EXTT6=
EXTT7=
EXTT8=
PLAYORDER=
